<svg height="16" width="16" xmlns="http://www.w3.org/2000/svg"><g transform="scale(.10958904)"><path d="m0 0h146v146h-146z" fill="#1a1818"/><g fill="#fff"><path d="m253.524 176.862v3.926h-7.1v20.89399h-4.39501v-20.89399h-7.1v-3.926z" transform="translate(-223.365 -153.118)"/><path d="m308.589 176.862h4.39498v24.82h-4.39498v-10.374h-10.3v10.37399h-4.395v-24.81999h4.395v10.519h10.3z" transform="translate(-259.842 -153.118)"/><path d="m364.952 197.756h11.239v3.92599h-15.6v-24.81999h15.238v3.926h-10.877v6.69999h9.51v4h-9.51z" transform="translate(-301.113 -153.118)"/><path d="m267.211 298.149h-5.8l-1.621-14.12102-5.39999 11.275h-4.32299l-5.4-11.23902-1.66702 14.08504h-5.8l3.062-24.82002h4.71899l7.24099 15.526 7.133-15.526h4.827z" transform="translate(-224.768 -212.805)"/><path d="m323.275 285.019c.10836-6.96535 5.82208-12.5354 12.78796-12.46636 6.96588.06906 12.56808 5.75122 12.53839 12.71738s-5.68015 12.60038-12.64635 12.60998c-3.39033-.01312-6.6354-1.37814-9.0157-3.7924-2.3803-2.41432-3.6992-5.6784-3.6643-9.0686zm19.633 0c0-4.143-2.84602-7.493-6.98902-7.493-4.17898 0-6.952 3.35-6.952 7.493 0 4.14302 2.77399 7.529 6.952 7.529 4.14302 0 6.98902-3.386 6.98902-7.529z" transform="translate(-278.023 -212.103)"/><path d="m411.073 273.329c5.764 0 8.357 4.106 8.357 8.21302 0 4.142-2.593 8.177-8.357 8.177h-4.573v8.43h-5.656v-24.82002zm-.25202 11.455c2.125 0 2.917-1.65702 2.917-3.242 0-1.585-.793-3.279-2.88198-3.279h-4.356v6.52z" transform="translate(-326.01703 -212.805)"/><path d="m456.018 290.207h5.656c0 1.585 1.585 2.809 3.53 2.809 1.83702 0 3.242-.936 3.242-2.55802 0-.97298-.54-1.87298-2.738-2.594l-2.954-.89998c-5.475-1.477-6.52-4.827-6.52-7.16902 0-4.46701 3.818-7.6 8.754-7.6 4.755 0 8.393 2.84602 8.393 7.673h-5.655c.04353-.75788-.24632-1.49692-.79347-2.0231s-1.29693-.78698-2.05253-.7139c-.72967-.06314-1.45355.17412-2.0043.65695-.55075.48279-.88074 1.16937-.9137 1.90107 0 .5.14402 1.621 2.45002 2.26998l2.59298.82902c3.53 1.081 7.133 2.88198 7.133 7.384 0 5.332-4.611 7.709-9.15 7.709-5.295-.001-8.97-3.1-8.97-7.674z" transform="translate(-360.15503 -212.103)"/><path d="m254.112 393.726-6.124-9.04198h-2.233v9.04198h-4.395v-24.82h9.726c5.548 0 7.889 4 7.889 7.961 0 3.566-2.341 7.169-6.12399 7.673l6.44799 9.186zm-8.357-20.894v8.141h4.431c3.10001 0 4.39501-1.76502 4.39501-4.035.09094-1.06416-.27193-2.11717-.9991-2.8994-.72717-.78222-1.75096-1.22082-2.81889-1.2076z" transform="translate(-227.34 -271.941)"/><path d="m296.442 380.633c.1177-6.93552 5.81484-12.47373 12.75087-12.3952 6.93607.0785 12.50638 5.74426 12.46707 12.68066-.0393 6.93637-5.67349 12.53864-12.60994 12.53854-3.3739-.0243-6.59944-1.39007-8.96486-3.79602-2.36538-2.40591-3.6762-5.65421-3.64314-9.02798zm20.821 0c0-4.755-3.494-8.754-8.249-8.754-4.719 0-8.14098 4-8.14098 8.754s3.42198 8.717 8.14098 8.717c4.755.001 8.249-3.962 8.249-8.717z" transform="translate(-261.42102 -271.24002)"/><path d="m370.893 380.633c.11774-6.93564 5.8151-12.4739 12.75126-12.3952 6.93618.0787 12.50641 5.7448 12.46674 12.68133-.0397 6.93649-5.6744 12.53851-12.611 12.53787-3.3737-.02457-6.59897-1.39047-8.96414-3.7964-2.36521-2.40587-3.67586-5.654-3.64286-9.0276zm20.821 0c0-4.755-3.494-8.754-8.249-8.754-4.719 0-8.141 4-8.141 8.754s3.422 8.717 8.141 8.717c4.755.001 8.249-3.962 8.249-8.717z" transform="translate(-307.48602 -271.24002)"/><path d="m475.606 393.726h-4.39402l-1.982-16.679-6.70001 13.869h-3.56601l-6.73599-13.83302-2.017 16.643h-4.39499l3.026-24.82h3.81799l8.069 17.07502 8.03299-17.07502h3.818z" transform="translate(-353.842 -271.941)"/></g></g></svg>