<svg xmlns="http://www.w3.org/2000/svg" width="146" height="146" viewBox="0 0 146 146"><g transform="translate(-204.586 -114.586)"><rect width="146" height="146" transform="translate(204.586 114.586)" fill="#1a1818"/><g transform="translate(216.157 138.33)"><path d="M253.524,176.862v3.926h-7.1v20.894h-4.395V180.788h-7.1v-3.926Z" transform="translate(-234.936 -176.862)" fill="#fff"/><path d="M308.589,176.862h4.395v24.82h-4.395V191.308h-10.3v10.374h-4.395v-24.82h4.395v10.519h10.3Z" transform="translate(-271.413 -176.862)" fill="#fff"/><path d="M364.952,197.756h11.239v3.926h-15.6v-24.82h15.238v3.926H364.952v6.7h9.51v4h-9.51Z" transform="translate(-312.684 -176.862)" fill="#fff"/><path d="M267.211,298.149h-5.8l-1.621-14.121-5.4,11.275h-4.323l-5.4-11.239L243,298.149h-5.8l3.062-24.82h4.719l7.241,15.526,7.133-15.526h4.827Z" transform="translate(-236.339 -236.549)" fill="#fff"/><path d="M323.275,285.019a12.664,12.664,0,1,1,12.68,12.861A12.73,12.73,0,0,1,323.275,285.019Zm19.633,0c0-4.143-2.846-7.493-6.989-7.493-4.179,0-6.952,3.35-6.952,7.493s2.774,7.529,6.952,7.529C340.062,292.548,342.908,289.162,342.908,285.019Z" transform="translate(-289.594 -235.847)" fill="#fff"/><path d="M411.073,273.329c5.764,0,8.357,4.106,8.357,8.213,0,4.142-2.593,8.177-8.357,8.177H406.5v8.43h-5.656v-24.82Zm-.252,11.455c2.125,0,2.917-1.657,2.917-3.242s-.793-3.279-2.882-3.279H406.5v6.52Z" transform="translate(-337.588 -236.549)" fill="#fff"/><path d="M456.018,290.207h5.656c0,1.585,1.585,2.809,3.53,2.809,1.837,0,3.242-.936,3.242-2.558,0-.973-.54-1.873-2.738-2.594l-2.954-.9c-5.475-1.477-6.52-4.827-6.52-7.169,0-4.467,3.818-7.6,8.754-7.6,4.755,0,8.393,2.846,8.393,7.673h-5.655a2.6,2.6,0,0,0-2.846-2.737,2.689,2.689,0,0,0-2.918,2.558c0,.5.144,1.621,2.45,2.27l2.593.829c3.53,1.081,7.133,2.882,7.133,7.384,0,5.332-4.611,7.709-9.15,7.709C459.693,297.88,456.018,294.781,456.018,290.207Z" transform="translate(-371.726 -235.847)" fill="#fff"/><path d="M254.112,393.726l-6.124-9.042h-2.233v9.042H241.36v-24.82h9.726c5.548,0,7.889,4,7.889,7.961,0,3.566-2.341,7.169-6.124,7.673l6.448,9.186Zm-8.357-20.894v8.141h4.431c3.1,0,4.395-1.765,4.395-4.035a3.785,3.785,0,0,0-3.818-4.107Z" transform="translate(-238.911 -295.685)" fill="#fff"/><path d="M296.442,380.633a12.61,12.61,0,1,1,12.608,12.824A12.7,12.7,0,0,1,296.442,380.633Zm20.821,0c0-4.755-3.494-8.754-8.249-8.754-4.719,0-8.141,4-8.141,8.754s3.422,8.717,8.141,8.717C313.769,389.351,317.263,385.388,317.263,380.633Z" transform="translate(-272.992 -294.984)" fill="#fff"/><path d="M370.893,380.633A12.61,12.61,0,1,1,383.5,393.457,12.7,12.7,0,0,1,370.893,380.633Zm20.821,0c0-4.755-3.494-8.754-8.249-8.754-4.719,0-8.141,4-8.141,8.754s3.422,8.717,8.141,8.717C388.22,389.351,391.714,385.388,391.714,380.633Z" transform="translate(-319.057 -294.984)" fill="#fff"/><path d="M475.606,393.726h-4.394l-1.982-16.679-6.7,13.869h-3.566l-6.736-13.833-2.017,16.643h-4.395l3.026-24.82h3.818l8.069,17.075,8.033-17.075h3.818Z" transform="translate(-365.413 -295.685)" fill="#fff"/></g></g></svg>